<?xml version="1.0" encoding="UTF-8" standalone="no"?>
<!DOCTYPE svg PUBLIC "-//W3C//DTD SVG 1.1//EN" "http://www.w3.org/Graphics/SVG/1.1/DTD/svg11.dtd">
<svg width="100%" height="100%" viewBox="0 0 1024 1024" version="1.1" xmlns="http://www.w3.org/2000/svg" xmlns:xlink="http://www.w3.org/1999/xlink" xml:space="preserve" xmlns:serif="http://www.serif.com/" style="fill-rule:evenodd;clip-rule:evenodd;stroke-linejoin:round;stroke-miterlimit:2;">
    <g transform="matrix(0.11971,0,0,0.11971,40.7011,57.7504)">
        <path d="M2755.91,1975.86C2755.91,1881.38 2832.5,1804.78 2926.99,1804.78L4947.03,1804.78C5041.52,1804.78 5118.11,1881.38 5118.11,1975.86L5118.11,5613.3C5118.11,5684.61 5073.89,5748.43 5007.13,5773.48C4940.38,5798.53 4865.08,5779.55 4818.18,5725.85C4575.35,5447.84 4245.2,5069.85 4065.86,4864.52C4033.37,4827.32 3986.39,4805.98 3937.01,4805.98C3887.62,4805.98 3840.65,4827.32 3808.16,4864.52C3628.82,5069.85 3298.66,5447.84 3055.84,5725.85C3008.93,5779.55 2933.64,5798.53 2866.88,5773.48C2800.13,5748.43 2755.91,5684.61 2755.91,5613.3L2755.91,1975.86Z" style="fill:white;"/>
    </g>
</svg>
